<svg xmlns="http://www.w3.org/2000/svg" viewBox="0 0 216.47 144.25"><defs><style>.cls-1{fill:#003876;}.cls-1,.cls-2,.cls-3,.cls-4{stroke:#000;stroke-width:0.25px;}.cls-2{fill:#fff;}.cls-3,.cls-4{fill:#e03a3e;}.cls-3{stroke-linejoin:bevel;}</style></defs><title>002</title><g id="Слой_2" data-name="Слой 2"><g id="Слой_1-2" data-name="Слой 1"><rect class="cls-1" x="0.13" y="0.13" width="216.22" height="144"/><polygon class="cls-2" points="0.13 48.11 45.79 48.11 0.13 17.63 0.13 0.13 26.25 0.13 90.14 42.49 90.14 0.13 126.11 0.13 126.11 42.49 189.99 0.13 216.34 0.13 216.34 17.63 170.45 48.11 216.34 48.11 216.34 96.13 170.45 96.13 216.34 126.62 216.34 144.13 189.99 144.13 126.11 101.76 126.11 144.13 90.14 144.13 90.14 101.76 26.25 144.13 0.13 144.13 0.13 126.62 45.79 96.13 0.13 96.13 0.13 48.11"/><polygon class="cls-3" points="199.35 0.13 127.18 48.14 144.45 48.14 216.34 0.13 199.35 0.13"/><polygon class="cls-3" points="216.34 144.13 144.38 96.13 161.73 96.13 216.34 132.68 216.34 144.13"/><polygon class="cls-3" points="72.43 48.14 0.13 0.13 0.13 11.59 55.01 48.14 72.43 48.14"/><polygon class="cls-3" points="72.28 96.13 0.13 144.13 17.39 144.13 89.56 96.13 72.28 96.13"/><polygon class="cls-4" points="0.13 58.07 97.8 58.07 97.8 0.13 118.94 0.13 118.94 58.07 216.34 58.07 216.34 86.19 118.94 86.19 118.94 144.13 97.8 144.13 97.8 86.19 0.13 86.19 0.13 58.07"/></g></g></svg>