<svg xmlns="http://www.w3.org/2000/svg" viewBox="0 0 216.24 144.25"><defs><style>.cls-1{fill:#f05c2f;stroke-width:0.25px;}.cls-1,.cls-2{stroke:#000;}.cls-2{fill:#fff;stroke-width:0.13px;}</style></defs><title>004</title><g id="Слой_2" data-name="Слой 2"><g id="Слой_1-2" data-name="Слой 1"><rect class="cls-1" x="0.13" y="0.13" width="215.99" height="144"/><path class="cls-2" d="M100.37,94c-5.08,4.56-11.78,6.86-19.15,6.86a28.73,28.73,0,0,1,0-57.46,28.21,28.21,0,0,1,19.15,6.89C93.79,42,83.62,36.21,72.21,36.21a35.92,35.92,0,0,0,0,71.83C83.6,108,93.79,102.27,100.37,94Z"/><polygon class="cls-2" points="113.27 55.06 112.88 67.96 100.39 71.56 112.66 75.98 112.17 88.89 120.09 78.66 132.24 83.08 124.96 72.31 132.97 62.2 120.54 65.8 113.27 55.06"/></g></g></svg>